<svg width="16" height="15" viewBox="0 0 16 15" fill="none" xmlns="http://www.w3.org/2000/svg">
<path d="M6.26352 14.4779H2.79057C2.54457 14.4779 2.33822 14.3945 2.17152 14.2278C2.0054 14.0617 1.92233 13.8556 1.92233 13.6096V7.53197H0.446329C0.24374 7.53197 0.106269 7.43791 0.0339156 7.24979C-0.0384376 7.06167 0.00497418 6.90249 0.164151 6.77226L7.41394 0.238765C7.57312 0.0795884 7.76847 0 8 0C8.23153 0 8.42688 0.0795884 8.58606 0.238765L11.473 2.84348V1.4543C11.473 1.2083 11.5563 1.00195 11.723 0.835245C11.8891 0.669122 12.0952 0.586061 12.3412 0.586061H13.2094C13.4554 0.586061 13.6615 0.669122 13.8276 0.835245C13.9943 1.00195 14.0777 1.2083 14.0777 1.4543V5.18772L15.8358 6.77226C15.995 6.90249 16.0384 7.06167 15.9661 7.24979C15.8937 7.43791 15.7563 7.53197 15.5537 7.53197H14.0777V13.6096C14.0777 13.8556 13.9943 14.0617 13.8276 14.2278C13.6615 14.3945 13.4554 14.4779 13.2094 14.4779H9.73648V10.1367C9.73648 9.89068 9.65342 9.68433 9.48729 9.51763C9.32059 9.3515 9.11424 9.26844 8.86824 9.26844H7.13176C6.88576 9.26844 6.6797 9.3515 6.51358 9.51763C6.34688 9.68433 6.26352 9.89068 6.26352 10.1367V14.4779ZM6.26352 5.8172H9.73648C9.73648 5.35414 9.56283 4.97414 9.21553 4.6772C8.86824 4.38084 8.46306 4.23266 8 4.23266C7.53694 4.23266 7.13176 4.38084 6.78447 4.6772C6.43717 4.97414 6.26352 5.35414 6.26352 5.8172Z" fill="#6C768A"/>
</svg>
