<svg width="14" height="14" viewBox="0 0 14 14" fill="none" xmlns="http://www.w3.org/2000/svg">
<path d="M12.9438 13.8136L8.15976 9.0503C7.74556 9.39546 7.26923 9.66469 6.73077 9.85799C6.19231 10.0513 5.64004 10.1479 5.07396 10.1479C3.65187 10.1479 2.45069 9.65779 1.47041 8.67752C0.490138 7.69724 0 6.49606 0 5.07396C0 3.66568 0.490138 2.46781 1.47041 1.48036C2.45069 0.493452 3.65187 0 5.07396 0C6.48225 0 7.67653 0.490138 8.65681 1.47041C9.63708 2.45069 10.1272 3.65187 10.1272 5.07396C10.1272 5.66765 10.0306 6.23373 9.83728 6.77219C9.64398 7.31065 9.38166 7.78008 9.0503 8.18047L13.8343 12.9645C13.9448 13.075 14 13.213 14 13.3787C14 13.5444 13.9379 13.6893 13.8136 13.8136C13.6894 13.9379 13.5411 14 13.3688 14C13.1959 14 13.0542 13.9379 12.9438 13.8136ZM5.07396 8.90533C6.13708 8.90533 7.03811 8.53254 7.77704 7.78698C8.51542 7.04142 8.88462 6.13708 8.88462 5.07396C8.88462 4.01085 8.51542 3.10651 7.77704 2.36095C7.03811 1.61538 6.13708 1.2426 5.07396 1.2426C3.99704 1.2426 3.08939 1.61538 2.35101 2.36095C1.61207 3.10651 1.2426 4.01085 1.2426 5.07396C1.2426 6.13708 1.61207 7.04142 2.35101 7.78698C3.08939 8.53254 3.99704 8.90533 5.07396 8.90533Z" fill="white"/>
</svg>
