<svg width="16" height="16" viewBox="0 0 16 16" fill="none" xmlns="http://www.w3.org/2000/svg">
<path d="M0 8.8V4.8C0 4.36 0.1568 3.98347 0.4704 3.6704C0.783467 3.3568 1.16 3.2 1.6 3.2H4.8V1.6C4.8 1.16 4.9568 0.7832 5.2704 0.4696C5.58347 0.156533 5.96 0 6.4 0H9.6C10.04 0 10.4168 0.156533 10.7304 0.4696C11.0435 0.7832 11.2 1.16 11.2 1.6V3.2H14.4C14.84 3.2 15.2168 3.3568 15.5304 3.6704C15.8435 3.98347 16 4.36 16 4.8V8.8H10.4V8C10.4 7.77333 10.3235 7.5832 10.1704 7.4296C10.0168 7.27653 9.82667 7.2 9.6 7.2H6.4C6.17333 7.2 5.98347 7.27653 5.8304 7.4296C5.6768 7.5832 5.6 7.77333 5.6 8V8.8H0ZM6.4 3.2H9.6V1.6H6.4V3.2ZM7.2 10.4V8.8H8.8V10.4H7.2ZM1.6 15.2C1.16 15.2 0.783467 15.0435 0.4704 14.7304C0.1568 14.4168 0 14.04 0 13.6V10.4H5.6V11.2C5.6 11.4267 5.6768 11.6165 5.8304 11.7696C5.98347 11.9232 6.17333 12 6.4 12H9.6C9.82667 12 10.0168 11.9232 10.1704 11.7696C10.3235 11.6165 10.4 11.4267 10.4 11.2V10.4H16V13.6C16 14.04 15.8435 14.4168 15.5304 14.7304C15.2168 15.0435 14.84 15.2 14.4 15.2H1.6Z" fill="#6C768A"/>
</svg>
