<svg width="16" height="16" viewBox="0 0 16 16" fill="none" xmlns="http://www.w3.org/2000/svg">
<path d="M8 16C7.83006 16 7.68967 15.9443 7.57882 15.8329C7.46745 15.7221 7.41176 15.5817 7.41176 15.4118V14.6471C5.77778 14.4771 4.40183 13.8332 3.28392 12.7153C2.16654 11.5979 1.52288 10.2222 1.35294 8.58823H0.588235C0.418301 8.58823 0.277909 8.53255 0.167059 8.42118C0.0556863 8.31033 0 8.16993 0 8C0 7.83006 0.0556863 7.68941 0.167059 7.57804C0.277909 7.46719 0.418301 7.41176 0.588235 7.41176H1.35294C1.52288 5.77778 2.16654 4.40183 3.28392 3.28392C4.40183 2.16654 5.77778 1.52288 7.41176 1.35294V0.588235C7.41176 0.418301 7.46745 0.277647 7.57882 0.166275C7.68967 0.0554249 7.83006 0 8 0C8.16993 0 8.31059 0.0554249 8.42196 0.166275C8.53281 0.277647 8.58823 0.418301 8.58823 0.588235V1.35294C10.2222 1.52288 11.5982 2.16654 12.7161 3.28392C13.8335 4.40183 14.4771 5.77778 14.6471 7.41176H15.4118C15.5817 7.41176 15.7224 7.46719 15.8337 7.57804C15.9446 7.68941 16 7.83006 16 8C16 8.16993 15.9446 8.31033 15.8337 8.42118C15.7224 8.53255 15.5817 8.58823 15.4118 8.58823H14.6471C14.4771 10.2222 13.8335 11.5979 12.7161 12.7153C11.5982 13.8332 10.2222 14.4771 8.58823 14.6471V15.4118C8.58823 15.5817 8.53281 15.7221 8.42196 15.8329C8.31059 15.9443 8.16993 16 8 16ZM8 13.4902C9.51634 13.4902 10.8105 12.9542 11.8824 11.8824C12.9542 10.8105 13.4902 9.51634 13.4902 8C13.4902 6.48366 12.9542 5.18954 11.8824 4.11765C10.8105 3.04575 9.51634 2.5098 8 2.5098C6.48366 2.5098 5.18954 3.04575 4.11765 4.11765C3.04575 5.18954 2.5098 6.48366 2.5098 8C2.5098 9.51634 3.04575 10.8105 4.11765 11.8824C5.18954 12.9542 6.48366 13.4902 8 13.4902ZM8 10.7451C7.24183 10.7451 6.59477 10.4771 6.05882 9.94118C5.52288 9.40523 5.2549 8.75817 5.2549 8C5.2549 7.24183 5.52288 6.59477 6.05882 6.05882C6.59477 5.52288 7.24183 5.2549 8 5.2549C8.75817 5.2549 9.40523 5.52288 9.94118 6.05882C10.4771 6.59477 10.7451 7.24183 10.7451 8C10.7451 8.75817 10.4771 9.40523 9.94118 9.94118C9.40523 10.4771 8.75817 10.7451 8 10.7451ZM8 9.56863C8.43137 9.56863 8.80078 9.4149 9.10823 9.10745C9.41516 8.80052 9.56863 8.43137 9.56863 8C9.56863 7.56863 9.41516 7.19922 9.10823 6.89176C8.80078 6.58484 8.43137 6.43137 8 6.43137C7.56863 6.43137 7.19948 6.58484 6.89255 6.89176C6.5851 7.19922 6.43137 7.56863 6.43137 8C6.43137 8.43137 6.5851 8.80052 6.89255 9.10745C7.19948 9.4149 7.56863 9.56863 8 9.56863Z" fill="white"/>
</svg>
