<svg width="14" height="10" viewBox="0 0 14 10" fill="none" xmlns="http://www.w3.org/2000/svg">
<path d="M0.888889 10C0.637037 10 0.426074 9.92 0.256 9.76C0.0853334 9.60055 0 9.40278 0 9.16667C0 8.93055 0.0853334 8.73278 0.256 8.57333C0.426074 8.41333 0.637037 8.33333 0.888889 8.33333H13.1111C13.363 8.33333 13.5739 8.41333 13.744 8.57333C13.9147 8.73278 14 8.93055 14 9.16667C14 9.40278 13.9147 9.60055 13.744 9.76C13.5739 9.92 13.363 10 13.1111 10H0.888889ZM0.888889 5.83333C0.637037 5.83333 0.426074 5.75333 0.256 5.59333C0.0853334 5.43389 0 5.23611 0 5C0 4.76389 0.0853334 4.56583 0.256 4.40583C0.426074 4.24639 0.637037 4.16667 0.888889 4.16667H13.1111C13.363 4.16667 13.5739 4.24639 13.744 4.40583C13.9147 4.56583 14 4.76389 14 5C14 5.23611 13.9147 5.43389 13.744 5.59333C13.5739 5.75333 13.363 5.83333 13.1111 5.83333H0.888889ZM0.888889 1.66667C0.637037 1.66667 0.426074 1.58694 0.256 1.4275C0.0853334 1.2675 0 1.06944 0 0.833333C0 0.597222 0.0853334 0.399167 0.256 0.239167C0.426074 0.0797224 0.637037 0 0.888889 0H13.1111C13.363 0 13.5739 0.0797224 13.744 0.239167C13.9147 0.399167 14 0.597222 14 0.833333C14 1.06944 13.9147 1.2675 13.744 1.4275C13.5739 1.58694 13.363 1.66667 13.1111 1.66667H0.888889Z" fill="white"/>
</svg>
