<svg width="26" height="26" viewBox="0 0 26 26" fill="none" xmlns="http://www.w3.org/2000/svg">
<path d="M8 18V18.4375C8 18.7848 7.88194 19.0764 7.64583 19.3125C7.40972 19.5487 7.11111 19.6667 6.75 19.6667C6.40278 19.6667 6.10778 19.545 5.865 19.3017C5.62167 19.0589 5.5 18.7639 5.5 18.4167V12.1667L7.25 7.16671C7.33333 6.91671 7.48278 6.71532 7.69833 6.56254C7.91333 6.40976 8.15278 6.33337 8.41667 6.33337H17.5833C17.8472 6.33337 18.0869 6.40976 18.3025 6.56254C18.5175 6.71532 18.6667 6.91671 18.75 7.16671L20.5 12.1667V18.4375C20.5 18.7848 20.3819 19.0764 20.1458 19.3125C19.9097 19.5487 19.6111 19.6667 19.25 19.6667C18.9028 19.6667 18.6078 19.545 18.365 19.3017C18.1217 19.0589 18 18.7639 18 18.4167V18H8ZM7.83333 10.5H18.1667L17.2917 8.00004H8.70833L7.83333 10.5ZM9.25 15.5C9.59722 15.5 9.89222 15.3784 10.135 15.135C10.3783 14.8923 10.5 14.5973 10.5 14.25C10.5 13.9028 10.3783 13.6078 10.135 13.365C9.89222 13.1217 9.59722 13 9.25 13C8.90278 13 8.60778 13.1217 8.365 13.365C8.12167 13.6078 8 13.9028 8 14.25C8 14.5973 8.12167 14.8923 8.365 15.135C8.60778 15.3784 8.90278 15.5 9.25 15.5ZM16.75 15.5C17.0972 15.5 17.3922 15.3784 17.635 15.135C17.8783 14.8923 18 14.5973 18 14.25C18 13.9028 17.8783 13.6078 17.635 13.365C17.3922 13.1217 17.0972 13 16.75 13C16.4028 13 16.1078 13.1217 15.865 13.365C15.6217 13.6078 15.5 13.9028 15.5 14.25C15.5 14.5973 15.6217 14.8923 15.865 15.135C16.1078 15.3784 16.4028 15.5 16.75 15.5Z" fill="white"/>
</svg>
