<svg width="12" height="16" viewBox="0 0 12 16" fill="none" xmlns="http://www.w3.org/2000/svg">
<path d="M5.6 13.32C5.48 13.32 5.36667 13.3032 5.26 13.2696C5.15333 13.2365 5.05333 13.1867 4.96 13.12C3.29333 11.8267 2.05013 10.5667 1.2304 9.34C0.410133 8.11333 0 6.90667 0 5.72C0 4.77333 0.170133 3.9432 0.5104 3.2296C0.850133 2.51653 1.28667 1.92 1.82 1.44C2.35333 0.96 2.95333 0.6 3.62 0.36C4.28667 0.12 4.94667 0 5.6 0C6.25333 0 6.91333 0.12 7.58 0.36C8.24667 0.6 8.84667 0.96 9.38 1.44C9.91333 1.92 10.3501 2.51653 10.6904 3.2296C11.0301 3.9432 11.2 4.77333 11.2 5.72C11.2 6.90667 10.7899 8.11333 9.9696 9.34C9.14987 10.5667 7.90667 11.8267 6.24 13.12C6.16 13.1867 6.06347 13.2365 5.9504 13.2696C5.8368 13.3032 5.72 13.32 5.6 13.32ZM5.6 7.2C6.04 7.2 6.4168 7.0432 6.7304 6.7296C7.04347 6.41653 7.2 6.04 7.2 5.6C7.2 5.16 7.04347 4.7832 6.7304 4.4696C6.4168 4.15653 6.04 4 5.6 4C5.16 4 4.78347 4.15653 4.4704 4.4696C4.1568 4.7832 4 5.16 4 5.6C4 6.04 4.1568 6.41653 4.4704 6.7296C4.78347 7.0432 5.16 7.2 5.6 7.2ZM0.8 16C0.573333 16 0.3832 15.9232 0.2296 15.7696C0.0765335 15.6165 0 15.4267 0 15.2C0 14.9733 0.0765335 14.7835 0.2296 14.6304C0.3832 14.4768 0.573333 14.4 0.8 14.4H10.4C10.6267 14.4 10.8165 14.4768 10.9696 14.6304C11.1232 14.7835 11.2 14.9733 11.2 15.2C11.2 15.4267 11.1232 15.6165 10.9696 15.7696C10.8165 15.9232 10.6267 16 10.4 16H0.8Z" fill="#6C768A"/>
</svg>
